<?xml version="1.0" encoding="utf-8" standalone="no"?>
<!DOCTYPE svg PUBLIC "-//W3C//DTD SVG 1.1//EN"
  "http://www.w3.org/Graphics/SVG/1.1/DTD/svg11.dtd">
<svg xmlns:xlink="http://www.w3.org/1999/xlink" width="460.8pt" height="345.6pt" viewBox="0 0 460.8 345.6" xmlns="http://www.w3.org/2000/svg" version="1.1">
 <metadata>
  <rdf:RDF xmlns:dc="http://purl.org/dc/elements/1.1/" xmlns:cc="http://creativecommons.org/ns#" xmlns:rdf="http://www.w3.org/1999/02/22-rdf-syntax-ns#">
   <cc:Work>
    <dc:type rdf:resource="http://purl.org/dc/dcmitype/StillImage"/>
    <dc:date>2024-09-19T17:19:37.524156</dc:date>
    <dc:format>image/svg+xml</dc:format>
    <dc:creator>
     <cc:Agent>
      <dc:title>Matplotlib v3.8.4, https://matplotlib.org/</dc:title>
     </cc:Agent>
    </dc:creator>
   </cc:Work>
  </rdf:RDF>
 </metadata>
 <defs>
  <style type="text/css">*{stroke-linejoin: round; stroke-linecap: butt}</style>
 </defs>
 <g id="figure_1">
  <g id="patch_1">
   <path d="M 0 345.6 
L 460.8 345.6 
L 460.8 0 
L 0 0 
z
" style="fill: #ffffff"/>
  </g>
  <g id="axes_1">
   <g id="patch_2">
    <path d="M 57.6 307.584 
L 414.72 307.584 
L 414.72 41.472 
L 57.6 41.472 
z
" style="fill: #ffffff"/>
   </g>
   <g id="patch_3">
    <path d="M -27.03744 307.584 
L -27.03744 307.584 
L -25.96608 307.584 
L -25.96608 307.584 
L -24.5376 307.584 
L -24.5376 307.584 
L -23.46624 307.584 
L -23.46624 307.584 
L -22.39488 307.584 
L -22.39488 307.584 
L -20.9664 307.584 
L -20.9664 307.584 
L -19.89504 307.584 
L -19.89504 307.584 
L -18.82368 307.584 
L -18.82368 307.584 
L -17.3952 307.584 
L -17.3952 307.584 
L -16.32384 307.584 
L -16.32384 307.584 
L -15.25248 307.584 
L -15.25248 307.584 
L -13.824 307.584 
L -13.824 307.584 
L -12.75264 307.584 
L -12.75264 307.584 
L -11.68128 307.584 
L -11.68128 307.584 
L -10.2528 307.584 
L -10.2528 307.584 
L -9.18144 307.584 
L -9.18144 307.584 
L -7.75296 307.584 
L -7.75296 307.584 
L -6.6816 307.584 
L -6.6816 307.584 
L -5.61024 307.584 
L -5.61024 307.584 
L -4.18176 307.584 
L -4.18176 307.584 
L -3.1104 307.584 
L -3.1104 307.584 
L -2.03904 307.584 
L -2.03904 307.584 
L -0.61056 307.584 
L -0.61056 307.584 
L 0.4608 307.584 
L 0.4608 307.584 
L 1.53216 307.584 
L 1.53216 307.584 
L 2.96064 307.584 
L 2.96064 307.584 
L 4.032 307.584 
L 4.032 307.584 
L 5.10336 307.584 
L 5.10336 307.584 
L 6.53184 307.584 
L 6.53184 307.584 
L 7.6032 307.584 
L 7.6032 307.584 
L 8.67456 307.584 
L 8.67456 307.584 
L 10.10304 307.584 
L 10.10304 307.584 
L 11.1744 307.584 
L 11.1744 307.584 
L 12.24576 307.584 
L 12.24576 307.584 
L 13.67424 307.584 
L 13.67424 307.584 
L 14.7456 307.584 
L 14.7456 307.584 
L 15.81696 307.584 
L 15.81696 307.584 
L 17.24544 307.584 
L 17.24544 307.584 
L 18.3168 307.584 
L 18.3168 307.584 
L 19.38816 307.584 
L 19.38816 307.584 
L 20.81664 307.584 
L 20.81664 307.584 
L 21.888 307.584 
L 21.888 307.584 
L 22.95936 307.584 
L 22.95936 307.584 
L 24.38784 307.584 
L 24.38784 307.584 
L 25.4592 307.584 
L 25.4592 307.584 
L 26.53056 307.584 
L 26.53056 307.584 
L 27.95904 307.584 
L 27.95904 307.584 
L 29.0304 307.584 
L 29.0304 307.584 
L 30.10176 307.584 
L 30.10176 307.584 
L 31.53024 307.584 
L 31.53024 307.584 
L 32.6016 307.584 
L 32.6016 307.584 
L 33.67296 307.584 
L 33.67296 307.584 
L 35.10144 307.584 
L 35.10144 307.584 
L 36.1728 307.584 
L 36.1728 307.584 
L 37.24416 307.584 
L 37.24416 307.584 
L 38.67264 307.584 
L 38.67264 307.584 
L 39.744 307.584 
L 39.744 307.584 
L 40.81536 307.584 
L 40.81536 307.584 
L 42.24384 307.584 
L 42.24384 307.584 
L 43.3152 307.584 
L 43.3152 307.584 
L 44.38656 307.584 
L 44.38656 307.584 
L 45.81504 307.584 
L 45.81504 307.584 
L 46.8864 307.584 
L 46.8864 307.584 
L 47.95776 307.584 
L 47.95776 307.584 
L 49.38624 307.584 
L 49.38624 307.584 
L 50.4576 307.584 
L 50.4576 307.584 
L 51.52896 307.584 
L 51.52896 307.584 
L 52.95744 307.584 
L 52.95744 307.584 
L 54.0288 307.584 
L 54.0288 307.584 
L 55.10016 307.584 
L 55.10016 307.584 
L 56.52864 307.584 
L 56.52864 307.584 
L 57.6 307.584 
L 57.6 307.584 
L 58.67136 307.584 
L 58.67136 307.584 
L 60.09984 307.584 
L 60.09984 307.584 
L 61.1712 307.584 
L 61.1712 307.584 
L 62.24256 307.584 
L 62.24256 307.584 
L 63.67104 307.584 
L 63.67104 307.584 
L 64.7424 307.584 
L 64.7424 307.584 
L 65.81376 307.584 
L 65.81376 307.584 
L 67.24224 307.584 
L 67.24224 307.584 
L 68.3136 307.584 
L 68.3136 307.584 
L 69.38496 307.584 
L 69.38496 307.584 
L 70.81344 307.584 
L 70.81344 307.584 
L 71.8848 307.584 
L 71.8848 307.584 
L 72.95616 307.584 
L 72.95616 307.584 
L 74.38464 307.584 
L 74.38464 307.584 
L 75.456 307.584 
L 75.456 307.584 
L 76.52736 307.584 
L 76.52736 307.584 
L 77.95584 307.584 
L 77.95584 307.584 
L 79.0272 307.584 
L 79.0272 307.584 
L 80.09856 307.584 
L 80.09856 307.584 
L 81.52704 307.584 
L 81.52704 307.584 
L 82.5984 307.584 
L 82.5984 307.584 
L 83.66976 307.584 
L 83.66976 307.584 
L 85.09824 307.584 
L 85.09824 307.584 
L 86.1696 307.584 
L 86.1696 307.584 
L 87.24096 307.584 
L 87.24096 307.584 
L 88.66944 307.584 
L 88.66944 307.584 
L 89.7408 307.584 
L 89.7408 307.584 
L 90.81216 307.584 
L 90.81216 307.584 
L 92.24064 307.584 
L 92.24064 307.584 
L 93.312 307.584 
L 93.312 307.584 
L 94.38336 307.584 
L 94.38336 307.584 
L 95.81184 307.584 
L 95.81184 307.584 
L 96.8832 307.584 
L 96.8832 307.584 
L 97.95456 307.584 
L 97.95456 307.584 
L 99.38304 307.584 
L 99.38304 307.584 
L 100.4544 307.584 
L 100.4544 307.584 
L 101.52576 307.584 
L 101.52576 307.584 
L 102.95424 307.584 
L 102.95424 307.584 
L 104.0256 307.584 
L 104.0256 307.584 
L 105.09696 307.584 
L 105.09696 307.584 
L 106.52544 307.584 
L 106.52544 307.584 
L 107.5968 307.584 
L 107.5968 307.584 
L 108.66816 307.584 
L 108.66816 307.584 
L 110.09664 307.584 
L 110.09664 307.584 
L 111.168 307.584 
L 111.168 307.584 
L 112.23936 307.584 
L 112.23936 307.584 
L 113.66784 307.584 
L 113.66784 307.584 
L 114.7392 307.584 
L 114.7392 307.584 
L 115.81056 307.584 
L 115.81056 307.584 
L 117.23904 307.584 
L 117.23904 307.584 
L 118.3104 307.584 
L 118.3104 307.584 
L 119.38176 307.584 
L 119.38176 307.584 
L 120.81024 307.584 
L 120.81024 307.584 
L 121.8816 307.584 
L 121.8816 307.584 
L 122.95296 307.584 
L 122.95296 307.584 
L 124.38144 307.584 
L 124.38144 307.584 
L 125.4528 307.584 
L 125.4528 307.584 
L 126.88128 307.584 
L 126.88128 307.584 
L 127.95264 307.584 
L 127.95264 307.584 
L 129.024 307.584 
L 129.024 307.584 
L 130.45248 307.584 
L 130.45248 307.584 
L 131.52384 307.584 
L 131.52384 307.584 
L 132.5952 307.584 
L 132.5952 307.584 
L 134.02368 307.584 
L 134.02368 307.584 
L 135.09504 307.584 
L 135.09504 297.348923 
L 136.1664 297.348923 
L 136.1664 297.348923 
L 137.59488 297.348923 
L 137.59488 297.348923 
L 138.66624 297.348923 
L 138.66624 297.348923 
L 139.7376 297.348923 
L 139.7376 297.348923 
L 141.16608 297.348923 
L 141.16608 297.348923 
L 142.23744 297.348923 
L 142.23744 297.348923 
L 143.3088 297.348923 
L 143.3088 297.348923 
L 144.73728 297.348923 
L 144.73728 297.348923 
L 145.80864 297.348923 
L 145.80864 297.348923 
L 146.88 297.348923 
L 146.88 297.348923 
L 148.30848 297.348923 
L 148.30848 297.348923 
L 149.37984 297.348923 
L 149.37984 287.113846 
L 150.4512 287.113846 
L 150.4512 287.113846 
L 151.87968 287.113846 
L 151.87968 287.113846 
L 152.95104 287.113846 
L 152.95104 287.113846 
L 154.0224 287.113846 
L 154.0224 287.113846 
L 155.45088 287.113846 
L 155.45088 287.113846 
L 156.52224 287.113846 
L 156.52224 287.113846 
L 157.5936 287.113846 
L 157.5936 287.113846 
L 159.02208 287.113846 
L 159.02208 287.113846 
L 160.09344 287.113846 
L 160.09344 287.113846 
L 161.1648 287.113846 
L 161.1648 287.113846 
L 162.59328 287.113846 
L 162.59328 287.113846 
L 163.66464 287.113846 
L 163.66464 287.113846 
L 164.736 287.113846 
L 164.736 276.878769 
L 166.16448 276.878769 
L 166.16448 276.878769 
L 167.23584 276.878769 
L 167.23584 276.878769 
L 168.3072 276.878769 
L 168.3072 276.878769 
L 169.73568 276.878769 
L 169.73568 276.878769 
L 170.80704 276.878769 
L 170.80704 276.878769 
L 171.8784 276.878769 
L 171.8784 276.878769 
L 173.30688 276.878769 
L 173.30688 276.878769 
L 174.37824 276.878769 
L 174.37824 276.878769 
L 175.4496 276.878769 
L 175.4496 276.878769 
L 176.87808 276.878769 
L 176.87808 266.643692 
L 177.94944 266.643692 
L 177.94944 266.643692 
L 179.0208 266.643692 
L 179.0208 266.643692 
L 180.44928 266.643692 
L 180.44928 266.643692 
L 181.52064 266.643692 
L 181.52064 266.643692 
L 182.592 266.643692 
L 182.592 266.643692 
L 184.02048 266.643692 
L 184.02048 266.643692 
L 185.09184 266.643692 
L 185.09184 266.643692 
L 186.1632 266.643692 
L 186.1632 266.643692 
L 187.59168 266.643692 
L 187.59168 266.643692 
L 188.66304 266.643692 
L 188.66304 266.643692 
L 189.7344 266.643692 
L 189.7344 256.408615 
L 191.16288 256.408615 
L 191.16288 256.408615 
L 192.23424 256.408615 
L 192.23424 256.408615 
L 193.3056 256.408615 
L 193.3056 256.408615 
L 194.73408 256.408615 
L 194.73408 256.408615 
L 195.80544 256.408615 
L 195.80544 256.408615 
L 196.8768 256.408615 
L 196.8768 256.408615 
L 198.30528 256.408615 
L 198.30528 256.408615 
L 199.37664 256.408615 
L 199.37664 256.408615 
L 200.448 256.408615 
L 200.448 246.173538 
L 201.87648 246.173538 
L 201.87648 246.173538 
L 202.94784 246.173538 
L 202.94784 246.173538 
L 204.0192 246.173538 
L 204.0192 246.173538 
L 205.44768 246.173538 
L 205.44768 246.173538 
L 206.51904 246.173538 
L 206.51904 246.173538 
L 207.5904 246.173538 
L 207.5904 246.173538 
L 209.01888 246.173538 
L 209.01888 246.173538 
L 210.09024 246.173538 
L 210.09024 235.938462 
L 211.1616 235.938462 
L 211.1616 235.938462 
L 212.59008 235.938462 
L 212.59008 235.938462 
L 213.66144 235.938462 
L 213.66144 235.938462 
L 214.7328 235.938462 
L 214.7328 235.938462 
L 216.16128 235.938462 
L 216.16128 235.938462 
L 217.23264 235.938462 
L 217.23264 235.938462 
L 218.304 235.938462 
L 218.304 235.938462 
L 219.73248 235.938462 
L 219.73248 235.938462 
L 220.80384 235.938462 
L 220.80384 235.938462 
L 221.8752 235.938462 
L 221.8752 235.938462 
L 223.30368 235.938462 
L 223.30368 235.938462 
L 224.37504 235.938462 
L 224.37504 225.703385 
L 225.4464 225.703385 
L 225.4464 225.703385 
L 226.87488 225.703385 
L 226.87488 225.703385 
L 227.94624 225.703385 
L 227.94624 225.703385 
L 229.0176 225.703385 
L 229.0176 225.703385 
L 230.44608 225.703385 
L 230.44608 225.703385 
L 231.51744 225.703385 
L 231.51744 225.703385 
L 232.5888 225.703385 
L 232.5888 225.703385 
L 234.01728 225.703385 
L 234.01728 225.703385 
L 235.08864 225.703385 
L 235.08864 225.703385 
L 236.16 225.703385 
L 236.16 215.468308 
L 237.58848 215.468308 
L 237.58848 215.468308 
L 238.65984 215.468308 
L 238.65984 215.468308 
L 239.7312 215.468308 
L 239.7312 215.468308 
L 241.15968 215.468308 
L 241.15968 215.468308 
L 242.23104 215.468308 
L 242.23104 215.468308 
L 243.3024 215.468308 
L 243.3024 215.468308 
L 244.73088 215.468308 
L 244.73088 215.468308 
L 245.80224 215.468308 
L 245.80224 215.468308 
L 246.8736 215.468308 
L 246.8736 215.468308 
L 248.30208 215.468308 
L 248.30208 215.468308 
L 249.37344 215.468308 
L 249.37344 205.233231 
L 250.4448 205.233231 
L 250.4448 205.233231 
L 251.87328 205.233231 
L 251.87328 205.233231 
L 252.94464 205.233231 
L 252.94464 205.233231 
L 254.016 205.233231 
L 254.016 205.233231 
L 255.44448 205.233231 
L 255.44448 205.233231 
L 256.51584 205.233231 
L 256.51584 205.233231 
L 257.94432 205.233231 
L 257.94432 205.233231 
L 259.01568 205.233231 
L 259.01568 205.233231 
L 260.08704 205.233231 
L 260.08704 194.998154 
L 261.51552 194.998154 
L 261.51552 194.998154 
L 262.58688 194.998154 
L 262.58688 194.998154 
L 263.65824 194.998154 
L 263.65824 194.998154 
L 265.08672 194.998154 
L 265.08672 194.998154 
L 266.15808 194.998154 
L 266.15808 194.998154 
L 267.22944 194.998154 
L 267.22944 194.998154 
L 268.65792 194.998154 
L 268.65792 194.998154 
L 269.72928 194.998154 
L 269.72928 194.998154 
L 270.80064 194.998154 
L 270.80064 184.763077 
L 272.22912 184.763077 
L 272.22912 184.763077 
L 273.30048 184.763077 
L 273.30048 184.763077 
L 274.37184 184.763077 
L 274.37184 184.763077 
L 275.80032 184.763077 
L 275.80032 184.763077 
L 276.87168 184.763077 
L 276.87168 184.763077 
L 277.94304 184.763077 
L 277.94304 184.763077 
L 279.37152 184.763077 
L 279.37152 184.763077 
L 280.44288 184.763077 
L 280.44288 184.763077 
L 281.51424 184.763077 
L 281.51424 174.528 
L 282.94272 174.528 
L 282.94272 174.528 
L 284.01408 174.528 
L 284.01408 174.528 
L 285.08544 174.528 
L 285.08544 174.528 
L 286.51392 174.528 
L 286.51392 174.528 
L 287.58528 174.528 
L 287.58528 174.528 
L 288.65664 174.528 
L 288.65664 174.528 
L 290.08512 174.528 
L 290.08512 174.528 
L 291.15648 174.528 
L 291.15648 174.528 
L 292.22784 174.528 
L 292.22784 174.528 
L 293.65632 174.528 
L 293.65632 164.292923 
L 294.72768 164.292923 
L 294.72768 164.292923 
L 295.79904 164.292923 
L 295.79904 164.292923 
L 297.22752 164.292923 
L 297.22752 164.292923 
L 298.29888 164.292923 
L 298.29888 164.292923 
L 299.37024 164.292923 
L 299.37024 164.292923 
L 300.79872 164.292923 
L 300.79872 164.292923 
L 301.87008 164.292923 
L 301.87008 164.292923 
L 302.94144 164.292923 
L 302.94144 164.292923 
L 304.36992 164.292923 
L 304.36992 154.057846 
L 305.44128 154.057846 
L 305.44128 154.057846 
L 306.51264 154.057846 
L 306.51264 154.057846 
L 307.94112 154.057846 
L 307.94112 154.057846 
L 309.01248 154.057846 
L 309.01248 154.057846 
L 310.08384 154.057846 
L 310.08384 154.057846 
L 311.51232 154.057846 
L 311.51232 154.057846 
L 312.58368 154.057846 
L 312.58368 154.057846 
L 313.65504 154.057846 
L 313.65504 154.057846 
L 315.08352 154.057846 
L 315.08352 143.822769 
L 316.15488 143.822769 
L 316.15488 143.822769 
L 317.22624 143.822769 
L 317.22624 143.822769 
L 318.65472 143.822769 
L 318.65472 143.822769 
L 319.72608 143.822769 
L 319.72608 143.822769 
L 320.79744 143.822769 
L 320.79744 143.822769 
L 322.22592 143.822769 
L 322.22592 143.822769 
L 323.29728 143.822769 
L 323.29728 143.822769 
L 324.36864 143.822769 
L 324.36864 143.822769 
L 325.79712 143.822769 
L 325.79712 133.587692 
L 326.86848 133.587692 
L 326.86848 133.587692 
L 327.93984 133.587692 
L 327.93984 133.587692 
L 329.36832 133.587692 
L 329.36832 133.587692 
L 330.43968 133.587692 
L 330.43968 133.587692 
L 331.51104 133.587692 
L 331.51104 133.587692 
L 332.93952 133.587692 
L 332.93952 133.587692 
L 334.01088 133.587692 
L 334.01088 133.587692 
L 335.08224 133.587692 
L 335.08224 133.587692 
L 336.51072 133.587692 
L 336.51072 123.352615 
L 337.58208 123.352615 
L 337.58208 123.352615 
L 338.65344 123.352615 
L 338.65344 123.352615 
L 340.08192 123.352615 
L 340.08192 123.352615 
L 341.15328 123.352615 
L 341.15328 123.352615 
L 342.22464 123.352615 
L 342.22464 123.352615 
L 343.65312 123.352615 
L 343.65312 123.352615 
L 344.72448 123.352615 
L 344.72448 123.352615 
L 345.79584 123.352615 
L 345.79584 113.117538 
L 347.22432 113.117538 
L 347.22432 113.117538 
L 348.29568 113.117538 
L 348.29568 113.117538 
L 349.36704 113.117538 
L 349.36704 113.117538 
L 350.79552 113.117538 
L 350.79552 113.117538 
L 351.86688 113.117538 
L 351.86688 113.117538 
L 352.93824 113.117538 
L 352.93824 113.117538 
L 354.36672 113.117538 
L 354.36672 113.117538 
L 355.43808 113.117538 
L 355.43808 113.117538 
L 356.50944 113.117538 
L 356.50944 102.882462 
L 357.93792 102.882462 
L 357.93792 102.882462 
L 359.00928 102.882462 
L 359.00928 102.882462 
L 360.08064 102.882462 
L 360.08064 102.882462 
L 361.50912 102.882462 
L 361.50912 102.882462 
L 362.58048 102.882462 
L 362.58048 102.882462 
L 363.65184 102.882462 
L 363.65184 102.882462 
L 365.08032 102.882462 
L 365.08032 102.882462 
L 366.15168 102.882462 
L 366.15168 92.647385 
L 367.22304 92.647385 
L 367.22304 92.647385 
L 368.65152 92.647385 
L 368.65152 92.647385 
L 369.72288 92.647385 
L 369.72288 92.647385 
L 370.79424 92.647385 
L 370.79424 92.647385 
L 372.22272 92.647385 
L 372.22272 92.647385 
L 373.29408 92.647385 
L 373.29408 92.647385 
L 374.36544 92.647385 
L 374.36544 92.647385 
L 375.79392 92.647385 
L 375.79392 82.412308 
L 376.86528 82.412308 
L 376.86528 82.412308 
L 377.93664 82.412308 
L 377.93664 82.412308 
L 379.36512 82.412308 
L 379.36512 82.412308 
L 380.43648 82.412308 
L 380.43648 82.412308 
L 381.50784 82.412308 
L 381.50784 82.412308 
L 382.93632 82.412308 
L 382.93632 82.412308 
L 384.00768 82.412308 
L 384.00768 82.412308 
L 385.07904 82.412308 
L 385.07904 72.177231 
L 386.50752 72.177231 
L 386.50752 72.177231 
L 387.57888 72.177231 
L 387.57888 72.177231 
L 388.65024 72.177231 
L 388.65024 72.177231 
L 390.07872 72.177231 
L 390.07872 72.177231 
L 391.15008 72.177231 
L 391.15008 72.177231 
L 392.57856 72.177231 
L 392.57856 72.177231 
L 393.64992 72.177231 
L 393.64992 72.177231 
L 394.72128 72.177231 
L 394.72128 72.177231 
L 396.14976 72.177231 
L 396.14976 61.942154 
L 397.22112 61.942154 
L 397.22112 61.942154 
L 398.29248 61.942154 
L 398.29248 61.942154 
L 399.72096 61.942154 
L 399.72096 61.942154 
L 400.79232 61.942154 
L 400.79232 61.942154 
L 401.86368 61.942154 
L 401.86368 61.942154 
L 403.29216 61.942154 
L 403.29216 61.942154 
L 404.36352 61.942154 
L 404.36352 61.942154 
L 405.43488 61.942154 
L 405.43488 51.707077 
L 406.86336 51.707077 
L 406.86336 51.707077 
L 407.93472 51.707077 
L 407.93472 51.707077 
L 409.00608 51.707077 
L 409.00608 51.707077 
L 410.43456 51.707077 
L 410.43456 51.707077 
L 411.50592 51.707077 
L 411.50592 51.707077 
L 412.57728 51.707077 
L 412.57728 51.707077 
L 414.00576 51.707077 
L 414.00576 51.707077 
L 415.07712 51.707077 
L 415.07712 41.472 
L 416.14848 41.472 
L 416.14848 41.472 
L 417.57696 41.472 
L 417.57696 41.472 
L 418.64832 41.472 
L 418.64832 41.472 
L 419.71968 41.472 
L 419.71968 41.472 
L 421.14816 41.472 
L 421.14816 41.472 
L 422.21952 41.472 
L 422.21952 41.472 
L 423.29088 41.472 
L 423.29088 41.472 
L 424.71936 41.472 
L 424.71936 31.236923 
L 425.79072 31.236923 
L 425.79072 31.236923 
L 426.86208 31.236923 
L 426.86208 31.236923 
L 428.29056 31.236923 
L 428.29056 31.236923 
L 429.36192 31.236923 
L 429.36192 31.236923 
L 430.43328 31.236923 
L 430.43328 31.236923 
L 431.86176 31.236923 
L 431.86176 31.236923 
L 432.93312 31.236923 
L 432.93312 31.236923 
L 434.00448 31.236923 
L 434.00448 31.236923 
L 435.43296 31.236923 
L 435.43296 21.001846 
L 436.50432 21.001846 
L 436.50432 21.001846 
L 437.57568 21.001846 
L 437.57568 21.001846 
L 439.00416 21.001846 
L 439.00416 21.001846 
L 440.07552 21.001846 
L 440.07552 21.001846 
L 441.14688 21.001846 
L 441.14688 21.001846 
L 442.57536 21.001846 
L 442.57536 21.001846 
L 443.64672 21.001846 
L 443.64672 10.766769 
L 444.71808 10.766769 
L 444.71808 10.766769 
L 446.14656 10.766769 
L 446.14656 10.766769 
L 447.21792 10.766769 
L 447.21792 10.766769 
L 448.28928 10.766769 
L 448.28928 10.766769 
L 449.71776 10.766769 
L 449.71776 307.584 
" clip-path="url(#p8da2a15e71)" style="fill: #87ceeb"/>
   </g>
   <g id="patch_4">
    <path d="M -1 307.584 
L 135.09504 307.584 
L 135.09504 297.348923 
L 149.37984 297.348923 
L 149.37984 287.113846 
L 164.736 287.113846 
L 164.736 276.878769 
L 176.87808 276.878769 
L 176.87808 266.643692 
L 189.7344 266.643692 
L 189.7344 256.408615 
L 200.448 256.408615 
L 200.448 246.173538 
L 210.09024 246.173538 
L 210.09024 235.938462 
L 224.37504 235.938462 
L 224.37504 225.703385 
L 236.16 225.703385 
L 236.16 215.468308 
L 249.37344 215.468308 
L 249.37344 205.233231 
L 260.08704 205.233231 
L 260.08704 194.998154 
L 270.80064 194.998154 
L 270.80064 184.763077 
L 281.51424 184.763077 
L 281.51424 174.528 
L 293.65632 174.528 
L 293.65632 164.292923 
L 304.36992 164.292923 
L 304.36992 154.057846 
L 315.08352 154.057846 
L 315.08352 143.822769 
L 325.79712 143.822769 
L 325.79712 133.587692 
L 336.51072 133.587692 
L 336.51072 123.352615 
L 345.79584 123.352615 
L 345.79584 113.117538 
L 356.50944 113.117538 
L 356.50944 102.882462 
L 366.15168 102.882462 
L 366.15168 92.647385 
L 375.79392 92.647385 
L 375.79392 82.412308 
L 385.07904 82.412308 
L 385.07904 72.177231 
L 396.14976 72.177231 
L 396.14976 61.942154 
L 405.43488 61.942154 
L 405.43488 51.707077 
L 415.07712 51.707077 
L 415.07712 41.472 
L 424.71936 41.472 
L 424.71936 31.236923 
L 435.43296 31.236923 
L 435.43296 21.001846 
L 443.64672 21.001846 
L 443.64672 10.766769 
L 449.71776 10.766769 
L 449.71776 307.584 
L 449.71776 307.584 
" clip-path="url(#p8da2a15e71)" style="fill: none; stroke: #1f77b4; stroke-linejoin: miter"/>
   </g>
   <g id="matplotlib.axis_1">
    <g id="xtick_1">
     <g id="line2d_1">
      <defs>
       <path id="m4d280575ef" d="M 0 0 
L 0 3.5 
" style="stroke: #000000; stroke-width: 0.8"/>
      </defs>
      <g>
       <use xlink:href="#m4d280575ef" x="57.6" y="307.584" style="stroke: #000000; stroke-width: 0.8"/>
      </g>
     </g>
     <g id="text_1">
      <!-- 0 -->
      <g transform="translate(54.41875 322.182437) scale(0.1 -0.1)">
       <defs>
        <path id="DejaVuSans-30" d="M 2034 4250 
Q 1547 4250 1301 3770 
Q 1056 3291 1056 2328 
Q 1056 1369 1301 889 
Q 1547 409 2034 409 
Q 2525 409 2770 889 
Q 3016 1369 3016 2328 
Q 3016 3291 2770 3770 
Q 2525 4250 2034 4250 
z
M 2034 4750 
Q 2819 4750 3233 4129 
Q 3647 3509 3647 2328 
Q 3647 1150 3233 529 
Q 2819 -91 2034 -91 
Q 1250 -91 836 529 
Q 422 1150 422 2328 
Q 422 3509 836 4129 
Q 1250 4750 2034 4750 
z
" transform="scale(0.015625)"/>
       </defs>
       <use xlink:href="#DejaVuSans-30"/>
      </g>
     </g>
    </g>
    <g id="xtick_2">
     <g id="line2d_2">
      <g>
       <use xlink:href="#m4d280575ef" x="129.024" y="307.584" style="stroke: #000000; stroke-width: 0.8"/>
      </g>
     </g>
     <g id="text_2">
      <!-- 2 -->
      <g transform="translate(125.84275 322.182437) scale(0.1 -0.1)">
       <defs>
        <path id="DejaVuSans-32" d="M 1228 531 
L 3431 531 
L 3431 0 
L 469 0 
L 469 531 
Q 828 903 1448 1529 
Q 2069 2156 2228 2338 
Q 2531 2678 2651 2914 
Q 2772 3150 2772 3378 
Q 2772 3750 2511 3984 
Q 2250 4219 1831 4219 
Q 1534 4219 1204 4116 
Q 875 4013 500 3803 
L 500 4441 
Q 881 4594 1212 4672 
Q 1544 4750 1819 4750 
Q 2544 4750 2975 4387 
Q 3406 4025 3406 3419 
Q 3406 3131 3298 2873 
Q 3191 2616 2906 2266 
Q 2828 2175 2409 1742 
Q 1991 1309 1228 531 
z
" transform="scale(0.015625)"/>
       </defs>
       <use xlink:href="#DejaVuSans-32"/>
      </g>
     </g>
    </g>
    <g id="xtick_3">
     <g id="line2d_3">
      <g>
       <use xlink:href="#m4d280575ef" x="200.448" y="307.584" style="stroke: #000000; stroke-width: 0.8"/>
      </g>
     </g>
     <g id="text_3">
      <!-- 4 -->
      <g transform="translate(197.26675 322.182437) scale(0.1 -0.1)">
       <defs>
        <path id="DejaVuSans-34" d="M 2419 4116 
L 825 1625 
L 2419 1625 
L 2419 4116 
z
M 2253 4666 
L 3047 4666 
L 3047 1625 
L 3713 1625 
L 3713 1100 
L 3047 1100 
L 3047 0 
L 2419 0 
L 2419 1100 
L 313 1100 
L 313 1709 
L 2253 4666 
z
" transform="scale(0.015625)"/>
       </defs>
       <use xlink:href="#DejaVuSans-34"/>
      </g>
     </g>
    </g>
    <g id="xtick_4">
     <g id="line2d_4">
      <g>
       <use xlink:href="#m4d280575ef" x="271.872" y="307.584" style="stroke: #000000; stroke-width: 0.8"/>
      </g>
     </g>
     <g id="text_4">
      <!-- 6 -->
      <g transform="translate(268.69075 322.182437) scale(0.1 -0.1)">
       <defs>
        <path id="DejaVuSans-36" d="M 2113 2584 
Q 1688 2584 1439 2293 
Q 1191 2003 1191 1497 
Q 1191 994 1439 701 
Q 1688 409 2113 409 
Q 2538 409 2786 701 
Q 3034 994 3034 1497 
Q 3034 2003 2786 2293 
Q 2538 2584 2113 2584 
z
M 3366 4563 
L 3366 3988 
Q 3128 4100 2886 4159 
Q 2644 4219 2406 4219 
Q 1781 4219 1451 3797 
Q 1122 3375 1075 2522 
Q 1259 2794 1537 2939 
Q 1816 3084 2150 3084 
Q 2853 3084 3261 2657 
Q 3669 2231 3669 1497 
Q 3669 778 3244 343 
Q 2819 -91 2113 -91 
Q 1303 -91 875 529 
Q 447 1150 447 2328 
Q 447 3434 972 4092 
Q 1497 4750 2381 4750 
Q 2619 4750 2861 4703 
Q 3103 4656 3366 4563 
z
" transform="scale(0.015625)"/>
       </defs>
       <use xlink:href="#DejaVuSans-36"/>
      </g>
     </g>
    </g>
    <g id="xtick_5">
     <g id="line2d_5">
      <g>
       <use xlink:href="#m4d280575ef" x="343.296" y="307.584" style="stroke: #000000; stroke-width: 0.8"/>
      </g>
     </g>
     <g id="text_5">
      <!-- 8 -->
      <g transform="translate(340.11475 322.182437) scale(0.1 -0.1)">
       <defs>
        <path id="DejaVuSans-38" d="M 2034 2216 
Q 1584 2216 1326 1975 
Q 1069 1734 1069 1313 
Q 1069 891 1326 650 
Q 1584 409 2034 409 
Q 2484 409 2743 651 
Q 3003 894 3003 1313 
Q 3003 1734 2745 1975 
Q 2488 2216 2034 2216 
z
M 1403 2484 
Q 997 2584 770 2862 
Q 544 3141 544 3541 
Q 544 4100 942 4425 
Q 1341 4750 2034 4750 
Q 2731 4750 3128 4425 
Q 3525 4100 3525 3541 
Q 3525 3141 3298 2862 
Q 3072 2584 2669 2484 
Q 3125 2378 3379 2068 
Q 3634 1759 3634 1313 
Q 3634 634 3220 271 
Q 2806 -91 2034 -91 
Q 1263 -91 848 271 
Q 434 634 434 1313 
Q 434 1759 690 2068 
Q 947 2378 1403 2484 
z
M 1172 3481 
Q 1172 3119 1398 2916 
Q 1625 2713 2034 2713 
Q 2441 2713 2670 2916 
Q 2900 3119 2900 3481 
Q 2900 3844 2670 4047 
Q 2441 4250 2034 4250 
Q 1625 4250 1398 4047 
Q 1172 3844 1172 3481 
z
" transform="scale(0.015625)"/>
       </defs>
       <use xlink:href="#DejaVuSans-38"/>
      </g>
     </g>
    </g>
    <g id="xtick_6">
     <g id="line2d_6">
      <g>
       <use xlink:href="#m4d280575ef" x="414.72" y="307.584" style="stroke: #000000; stroke-width: 0.8"/>
      </g>
     </g>
     <g id="text_6">
      <!-- 10 -->
      <g transform="translate(408.3575 322.182437) scale(0.1 -0.1)">
       <defs>
        <path id="DejaVuSans-31" d="M 794 531 
L 1825 531 
L 1825 4091 
L 703 3866 
L 703 4441 
L 1819 4666 
L 2450 4666 
L 2450 531 
L 3481 531 
L 3481 0 
L 794 0 
L 794 531 
z
" transform="scale(0.015625)"/>
       </defs>
       <use xlink:href="#DejaVuSans-31"/>
       <use xlink:href="#DejaVuSans-30" x="63.623047"/>
      </g>
     </g>
    </g>
    <g id="text_7">
     <!-- $t$ [s] -->
     <g transform="translate(226.06 335.860562) scale(0.1 -0.1)">
      <defs>
       <path id="DejaVuSans-Oblique-74" d="M 2706 3500 
L 2619 3053 
L 1472 3053 
L 1100 1153 
Q 1081 1047 1072 975 
Q 1063 903 1063 863 
Q 1063 663 1183 572 
Q 1303 481 1569 481 
L 2150 481 
L 2053 0 
L 1503 0 
Q 991 0 739 200 
Q 488 400 488 806 
Q 488 878 497 964 
Q 506 1050 525 1153 
L 897 3053 
L 409 3053 
L 500 3500 
L 978 3500 
L 1172 4494 
L 1747 4494 
L 1556 3500 
L 2706 3500 
z
" transform="scale(0.015625)"/>
       <path id="DejaVuSans-20" transform="scale(0.015625)"/>
       <path id="DejaVuSans-5b" d="M 550 4863 
L 1875 4863 
L 1875 4416 
L 1125 4416 
L 1125 -397 
L 1875 -397 
L 1875 -844 
L 550 -844 
L 550 4863 
z
" transform="scale(0.015625)"/>
       <path id="DejaVuSans-73" d="M 2834 3397 
L 2834 2853 
Q 2591 2978 2328 3040 
Q 2066 3103 1784 3103 
Q 1356 3103 1142 2972 
Q 928 2841 928 2578 
Q 928 2378 1081 2264 
Q 1234 2150 1697 2047 
L 1894 2003 
Q 2506 1872 2764 1633 
Q 3022 1394 3022 966 
Q 3022 478 2636 193 
Q 2250 -91 1575 -91 
Q 1294 -91 989 -36 
Q 684 19 347 128 
L 347 722 
Q 666 556 975 473 
Q 1284 391 1588 391 
Q 1994 391 2212 530 
Q 2431 669 2431 922 
Q 2431 1156 2273 1281 
Q 2116 1406 1581 1522 
L 1381 1569 
Q 847 1681 609 1914 
Q 372 2147 372 2553 
Q 372 3047 722 3315 
Q 1072 3584 1716 3584 
Q 2034 3584 2315 3537 
Q 2597 3491 2834 3397 
z
" transform="scale(0.015625)"/>
       <path id="DejaVuSans-5d" d="M 1947 4863 
L 1947 -844 
L 622 -844 
L 622 -397 
L 1369 -397 
L 1369 4416 
L 622 4416 
L 622 4863 
L 1947 4863 
z
" transform="scale(0.015625)"/>
      </defs>
      <use xlink:href="#DejaVuSans-Oblique-74" transform="translate(0 0.015625)"/>
      <use xlink:href="#DejaVuSans-20" transform="translate(39.208984 0.015625)"/>
      <use xlink:href="#DejaVuSans-5b" transform="translate(70.996094 0.015625)"/>
      <use xlink:href="#DejaVuSans-73" transform="translate(110.009766 0.015625)"/>
      <use xlink:href="#DejaVuSans-5d" transform="translate(162.109375 0.015625)"/>
     </g>
    </g>
   </g>
   <g id="matplotlib.axis_2">
    <g id="ytick_1">
     <g id="line2d_7">
      <defs>
       <path id="m692d056695" d="M 0 0 
L -3.5 0 
" style="stroke: #000000; stroke-width: 0.8"/>
      </defs>
      <g>
       <use xlink:href="#m692d056695" x="57.6" y="307.584" style="stroke: #000000; stroke-width: 0.8"/>
      </g>
     </g>
     <g id="text_8">
      <!-- 0 -->
      <g transform="translate(44.2375 311.383219) scale(0.1 -0.1)">
       <use xlink:href="#DejaVuSans-30"/>
      </g>
     </g>
    </g>
    <g id="ytick_2">
     <g id="line2d_8">
      <g>
       <use xlink:href="#m692d056695" x="57.6" y="256.408615" style="stroke: #000000; stroke-width: 0.8"/>
      </g>
     </g>
     <g id="text_9">
      <!-- 5 -->
      <g transform="translate(44.2375 260.207834) scale(0.1 -0.1)">
       <defs>
        <path id="DejaVuSans-35" d="M 691 4666 
L 3169 4666 
L 3169 4134 
L 1269 4134 
L 1269 2991 
Q 1406 3038 1543 3061 
Q 1681 3084 1819 3084 
Q 2600 3084 3056 2656 
Q 3513 2228 3513 1497 
Q 3513 744 3044 326 
Q 2575 -91 1722 -91 
Q 1428 -91 1123 -41 
Q 819 9 494 109 
L 494 744 
Q 775 591 1075 516 
Q 1375 441 1709 441 
Q 2250 441 2565 725 
Q 2881 1009 2881 1497 
Q 2881 1984 2565 2268 
Q 2250 2553 1709 2553 
Q 1456 2553 1204 2497 
Q 953 2441 691 2322 
L 691 4666 
z
" transform="scale(0.015625)"/>
       </defs>
       <use xlink:href="#DejaVuSans-35"/>
      </g>
     </g>
    </g>
    <g id="ytick_3">
     <g id="line2d_9">
      <g>
       <use xlink:href="#m692d056695" x="57.6" y="205.233231" style="stroke: #000000; stroke-width: 0.8"/>
      </g>
     </g>
     <g id="text_10">
      <!-- 10 -->
      <g transform="translate(37.875 209.03245) scale(0.1 -0.1)">
       <use xlink:href="#DejaVuSans-31"/>
       <use xlink:href="#DejaVuSans-30" x="63.623047"/>
      </g>
     </g>
    </g>
    <g id="ytick_4">
     <g id="line2d_10">
      <g>
       <use xlink:href="#m692d056695" x="57.6" y="154.057846" style="stroke: #000000; stroke-width: 0.8"/>
      </g>
     </g>
     <g id="text_11">
      <!-- 15 -->
      <g transform="translate(37.875 157.857065) scale(0.1 -0.1)">
       <use xlink:href="#DejaVuSans-31"/>
       <use xlink:href="#DejaVuSans-35" x="63.623047"/>
      </g>
     </g>
    </g>
    <g id="ytick_5">
     <g id="line2d_11">
      <g>
       <use xlink:href="#m692d056695" x="57.6" y="102.882462" style="stroke: #000000; stroke-width: 0.8"/>
      </g>
     </g>
     <g id="text_12">
      <!-- 20 -->
      <g transform="translate(37.875 106.68168) scale(0.1 -0.1)">
       <use xlink:href="#DejaVuSans-32"/>
       <use xlink:href="#DejaVuSans-30" x="63.623047"/>
      </g>
     </g>
    </g>
    <g id="ytick_6">
     <g id="line2d_12">
      <g>
       <use xlink:href="#m692d056695" x="57.6" y="51.707077" style="stroke: #000000; stroke-width: 0.8"/>
      </g>
     </g>
     <g id="text_13">
      <!-- 25 -->
      <g transform="translate(37.875 55.506296) scale(0.1 -0.1)">
       <use xlink:href="#DejaVuSans-32"/>
       <use xlink:href="#DejaVuSans-35" x="63.623047"/>
      </g>
     </g>
    </g>
    <g id="text_14">
     <!-- $v$ [$\frac{\text{m}}{\text{s}}$] -->
     <g transform="translate(31.075 187.028) rotate(-90) scale(0.1 -0.1)">
      <defs>
       <path id="DejaVuSans-Oblique-76" d="M 459 3500 
L 1069 3500 
L 1581 525 
L 3256 3500 
L 3866 3500 
L 1875 0 
L 1100 0 
L 459 3500 
z
" transform="scale(0.015625)"/>
       <path id="DejaVuSans-6d" d="M 3328 2828 
Q 3544 3216 3844 3400 
Q 4144 3584 4550 3584 
Q 5097 3584 5394 3201 
Q 5691 2819 5691 2113 
L 5691 0 
L 5113 0 
L 5113 2094 
Q 5113 2597 4934 2840 
Q 4756 3084 4391 3084 
Q 3944 3084 3684 2787 
Q 3425 2491 3425 1978 
L 3425 0 
L 2847 0 
L 2847 2094 
Q 2847 2600 2669 2842 
Q 2491 3084 2119 3084 
Q 1678 3084 1418 2786 
Q 1159 2488 1159 1978 
L 1159 0 
L 581 0 
L 581 3500 
L 1159 3500 
L 1159 2956 
Q 1356 3278 1631 3431 
Q 1906 3584 2284 3584 
Q 2666 3584 2933 3390 
Q 3200 3197 3328 2828 
z
" transform="scale(0.015625)"/>
      </defs>
      <use xlink:href="#DejaVuSans-Oblique-76" transform="translate(0 0.003125)"/>
      <use xlink:href="#DejaVuSans-20" transform="translate(59.179688 0.003125)"/>
      <use xlink:href="#DejaVuSans-5b" transform="translate(90.966797 0.003125)"/>
      <use xlink:href="#DejaVuSans-6d" transform="translate(129.980469 43.8) scale(0.7)"/>
      <use xlink:href="#DejaVuSans-73" transform="translate(145.980469 -26.65) scale(0.7)"/>
      <use xlink:href="#DejaVuSans-5d" transform="translate(210.668945 0.003125)"/>
      <path d="M 129.980469 18.8 
L 129.980469 25.05 
L 198.168945 25.05 
L 198.168945 18.8 
L 129.980469 18.8 
z
"/>
     </g>
    </g>
   </g>
   <g id="patch_5">
    <path d="M 57.6 307.584 
L 57.6 41.472 
" style="fill: none; stroke: #000000; stroke-width: 0.8; stroke-linejoin: miter; stroke-linecap: square"/>
   </g>
   <g id="patch_6">
    <path d="M 414.72 307.584 
L 414.72 41.472 
" style="fill: none; stroke: #000000; stroke-width: 0.8; stroke-linejoin: miter; stroke-linecap: square"/>
   </g>
   <g id="patch_7">
    <path d="M 57.6 307.584 
L 414.72 307.584 
" style="fill: none; stroke: #000000; stroke-width: 0.8; stroke-linejoin: miter; stroke-linecap: square"/>
   </g>
   <g id="patch_8">
    <path d="M 57.6 41.472 
L 414.72 41.472 
" style="fill: none; stroke: #000000; stroke-width: 0.8; stroke-linejoin: miter; stroke-linecap: square"/>
   </g>
   <g id="legend_1">
    <g id="patch_9">
     <path d="M 64.6 64.150125 
L 138.779687 64.150125 
Q 140.779687 64.150125 140.779687 62.150125 
L 140.779687 48.472 
Q 140.779687 46.472 138.779687 46.472 
L 64.6 46.472 
Q 62.6 46.472 62.6 48.472 
L 62.6 62.150125 
Q 62.6 64.150125 64.6 64.150125 
z
" style="fill: #ffffff; opacity: 0.8; stroke: #cccccc; stroke-linejoin: miter"/>
    </g>
    <g id="line2d_13">
     <path d="M 66.6 54.570438 
L 86.6 54.570438 
" style="fill: none; stroke: #1f77b4; stroke-linecap: square"/>
    </g>
    <g id="text_15">
     <!-- Rychlost -->
     <g transform="translate(94.6 58.070438) scale(0.1 -0.1)">
      <defs>
       <path id="DejaVuSans-52" d="M 2841 2188 
Q 3044 2119 3236 1894 
Q 3428 1669 3622 1275 
L 4263 0 
L 3584 0 
L 2988 1197 
Q 2756 1666 2539 1819 
Q 2322 1972 1947 1972 
L 1259 1972 
L 1259 0 
L 628 0 
L 628 4666 
L 2053 4666 
Q 2853 4666 3247 4331 
Q 3641 3997 3641 3322 
Q 3641 2881 3436 2590 
Q 3231 2300 2841 2188 
z
M 1259 4147 
L 1259 2491 
L 2053 2491 
Q 2509 2491 2742 2702 
Q 2975 2913 2975 3322 
Q 2975 3731 2742 3939 
Q 2509 4147 2053 4147 
L 1259 4147 
z
" transform="scale(0.015625)"/>
       <path id="DejaVuSans-79" d="M 2059 -325 
Q 1816 -950 1584 -1140 
Q 1353 -1331 966 -1331 
L 506 -1331 
L 506 -850 
L 844 -850 
Q 1081 -850 1212 -737 
Q 1344 -625 1503 -206 
L 1606 56 
L 191 3500 
L 800 3500 
L 1894 763 
L 2988 3500 
L 3597 3500 
L 2059 -325 
z
" transform="scale(0.015625)"/>
       <path id="DejaVuSans-63" d="M 3122 3366 
L 3122 2828 
Q 2878 2963 2633 3030 
Q 2388 3097 2138 3097 
Q 1578 3097 1268 2742 
Q 959 2388 959 1747 
Q 959 1106 1268 751 
Q 1578 397 2138 397 
Q 2388 397 2633 464 
Q 2878 531 3122 666 
L 3122 134 
Q 2881 22 2623 -34 
Q 2366 -91 2075 -91 
Q 1284 -91 818 406 
Q 353 903 353 1747 
Q 353 2603 823 3093 
Q 1294 3584 2113 3584 
Q 2378 3584 2631 3529 
Q 2884 3475 3122 3366 
z
" transform="scale(0.015625)"/>
       <path id="DejaVuSans-68" d="M 3513 2113 
L 3513 0 
L 2938 0 
L 2938 2094 
Q 2938 2591 2744 2837 
Q 2550 3084 2163 3084 
Q 1697 3084 1428 2787 
Q 1159 2491 1159 1978 
L 1159 0 
L 581 0 
L 581 4863 
L 1159 4863 
L 1159 2956 
Q 1366 3272 1645 3428 
Q 1925 3584 2291 3584 
Q 2894 3584 3203 3211 
Q 3513 2838 3513 2113 
z
" transform="scale(0.015625)"/>
       <path id="DejaVuSans-6c" d="M 603 4863 
L 1178 4863 
L 1178 0 
L 603 0 
L 603 4863 
z
" transform="scale(0.015625)"/>
       <path id="DejaVuSans-6f" d="M 1959 3097 
Q 1497 3097 1228 2736 
Q 959 2375 959 1747 
Q 959 1119 1226 758 
Q 1494 397 1959 397 
Q 2419 397 2687 759 
Q 2956 1122 2956 1747 
Q 2956 2369 2687 2733 
Q 2419 3097 1959 3097 
z
M 1959 3584 
Q 2709 3584 3137 3096 
Q 3566 2609 3566 1747 
Q 3566 888 3137 398 
Q 2709 -91 1959 -91 
Q 1206 -91 779 398 
Q 353 888 353 1747 
Q 353 2609 779 3096 
Q 1206 3584 1959 3584 
z
" transform="scale(0.015625)"/>
       <path id="DejaVuSans-74" d="M 1172 4494 
L 1172 3500 
L 2356 3500 
L 2356 3053 
L 1172 3053 
L 1172 1153 
Q 1172 725 1289 603 
Q 1406 481 1766 481 
L 2356 481 
L 2356 0 
L 1766 0 
Q 1100 0 847 248 
Q 594 497 594 1153 
L 594 3053 
L 172 3053 
L 172 3500 
L 594 3500 
L 594 4494 
L 1172 4494 
z
" transform="scale(0.015625)"/>
      </defs>
      <use xlink:href="#DejaVuSans-52"/>
      <use xlink:href="#DejaVuSans-79" x="63.982422"/>
      <use xlink:href="#DejaVuSans-63" x="123.162109"/>
      <use xlink:href="#DejaVuSans-68" x="178.142578"/>
      <use xlink:href="#DejaVuSans-6c" x="241.521484"/>
      <use xlink:href="#DejaVuSans-6f" x="269.304688"/>
      <use xlink:href="#DejaVuSans-73" x="330.486328"/>
      <use xlink:href="#DejaVuSans-74" x="382.585938"/>
     </g>
    </g>
   </g>
  </g>
 </g>
 <defs>
  <clipPath id="p8da2a15e71">
   <rect x="57.6" y="41.472" width="357.12" height="266.112"/>
  </clipPath>
 </defs>
</svg>
